<?xml version="1.0" standalone="no"?><!DOCTYPE svg PUBLIC "-//W3C//DTD SVG 1.1//EN" "http://www.w3.org/Graphics/SVG/1.1/DTD/svg11.dtd"><svg t="1733882075955" class="icon" viewBox="0 0 1024 1024" version="1.1" xmlns="http://www.w3.org/2000/svg" p-id="39883" xmlns:xlink="http://www.w3.org/1999/xlink" width="200" height="200"><path d="M804.79 921.58H219.21c-40.87 0-74.12-33.25-74.12-74.12v-670.6c0-40.87 33.25-74.12 74.12-74.12h392.33v55.59H219.21c-10.04 0-18.53 8.49-18.53 18.53v670.59c0 10.04 8.49 18.53 18.53 18.53h585.58c10.04 0 18.53-8.49 18.53-18.53V357.64h55.59v489.82c0 40.87-33.25 74.12-74.12 74.12z" fill="#BFCBD9" p-id="39884"></path><path d="M850.71 385.11H657.47c-40.87 0-74.12-33.25-74.12-74.12V130.22c0-11.11 6.61-21.15 16.82-25.54a27.791 27.791 0 0 1 30.1 5.36l239.57 227.1a27.805 27.805 0 0 1 6.7 30.47 27.81 27.81 0 0 1-25.83 17.5zM638.94 194.86v116.12c0 10.04 8.49 18.53 18.53 18.53h123.52L638.94 194.86z" fill="#BFCBD9" p-id="39885"></path><path d="M457.69 488L332.54 613.15c-9.2 9.2-24.26 9.2-33.46 0s-9.2-24.26 0-33.46l125.15-125.15c9.2-9.2 24.26-9.2 33.46 0s9.2 24.26 0 33.46z" p-id="39886" fill="#BFCBD9"></path><path d="M332.54 579.69l125.15 125.15c9.2 9.2 9.2 24.26 0 33.46s-24.26 9.2-33.46 0L299.08 613.15c-9.2-9.2-9.2-24.26 0-33.46s24.26-9.2 33.46 0zM565.44 488l125.15 125.15c9.2 9.2 24.26 9.2 33.46 0s9.2-24.26 0-33.46L598.9 454.54c-9.2-9.2-24.26-9.2-33.46 0s-9.2 24.26 0 33.46z" p-id="39887" fill="#BFCBD9"></path><path d="M690.59 579.69L565.44 704.84c-9.2 9.2-9.2 24.26 0 33.46s24.26 9.2 33.46 0l125.15-125.15c9.2-9.2 9.2-24.26 0-33.46s-24.26-9.2-33.46 0z" p-id="39888" fill="#BFCBD9"></path></svg>