<?xml version="1.0" standalone="no"?><!DOCTYPE svg PUBLIC "-//W3C//DTD SVG 1.1//EN" "http://www.w3.org/Graphics/SVG/1.1/DTD/svg11.dtd"><svg t="1733880874873" class="icon" viewBox="0 0 1024 1024" version="1.1" xmlns="http://www.w3.org/2000/svg" p-id="18795" xmlns:xlink="http://www.w3.org/1999/xlink" width="200" height="200"><path d="M311.11 269.1c17.54 16.73 34.28 32.69 51.95 49.54-64.7 63.7-129.41 127.41-195.45 192.44 65.3 62.58 130.08 124.66 195.91 187.74-16.65 17.36-32.66 34.05-49.63 51.76L64.53 511.87c83-81.73 165.52-162.96 246.58-242.77zM662.14 318.23l51.65-49.85c81.16 79.87 163.41 160.82 245.55 241.65-5.14 9.31-225.42 222.03-248.36 239.82-15.8-16.55-31.73-33.23-48.8-51.11 33.27-31.87 65.81-63.03 98.33-94.2 32.27-30.92 64.53-61.85 97.53-93.48-65.56-64.52-130.27-128.22-195.9-192.83zM551.06 233.42l69.2 18.96c-49.45 180.22-98.65 359.54-148.23 540.25-23.35-6.41-45.58-12.5-69.2-18.98 49.45-180.18 98.56-359.18 148.23-540.23z" p-id="18796" fill="#BFCBD9"></path></svg>