<?xml version="1.0" standalone="no"?><!DOCTYPE svg PUBLIC "-//W3C//DTD SVG 1.1//EN" "http://www.w3.org/Graphics/SVG/1.1/DTD/svg11.dtd"><svg t="1733881105784" class="icon" viewBox="0 0 1024 1024" version="1.1" xmlns="http://www.w3.org/2000/svg" p-id="28758" xmlns:xlink="http://www.w3.org/1999/xlink" width="200" height="200"><path d="M115.6 379.7l387.7 221.9c5.1 2.9 10.7 4.4 16.4 4.4 5.9 0 11.7-1.6 16.9-4.7l371.3-221.9c10-6 16.1-16.8 16.1-28.5-0.1-11.7-6.3-22.4-16.4-28.3L529.9 102.5c-10.2-6-22.9-6-33.1-0.1L115.5 322.5A33.05 33.05 0 0 0 99 351.1c0 11.9 6.4 22.8 16.6 28.6z m397.6-210.6L826 351.4 519.4 534.8 198.2 351l315-181.9z" p-id="28759" fill="#BFCBD9"></path><path d="M115.6 531.2l387.7 221.9c5.1 2.9 10.7 4.4 16.4 4.4 5.9 0 11.7-1.6 16.9-4.7l371.3-221.9c10-6 16.1-16.8 16.1-28.5-0.1-11.7-6.3-22.5-16.4-28.3l-31.8-18.5c-15.7-9.2-36-3.9-45.1 11.9-6.1 10.5-5.8 23-0.2 32.9l-311.1 186-326.2-186.9c5.1-9.7 5.3-21.8-0.6-32-9.1-15.8-29.3-21.2-45.1-12.1l-32 18.5A33.05 33.05 0 0 0 99 502.5c0 11.9 6.4 22.8 16.6 28.7z" p-id="28760" fill="#BFCBD9"></path><path d="M908.1 627l-31.8-18.5c-15.7-9.2-36-3.8-45.1 11.9-6.1 10.5-5.8 23-0.2 32.9l-311.1 186-326.2-186.8c5.1-9.7 5.3-21.8-0.6-32-9.1-15.8-29.3-21.2-45.1-12.1l-32 18.5a33.05 33.05 0 0 0-16.5 28.6c0 11.8 6.4 22.7 16.6 28.6L503.8 906c5.1 2.9 10.7 4.4 16.4 4.4 5.9 0 11.7-1.6 16.9-4.7l371.3-221.9c10-6 16.1-16.8 16.1-28.5-0.1-11.6-6.3-22.4-16.4-28.3z" p-id="28761" fill="#BFCBD9"></path></svg>