<?xml version="1.0" standalone="no"?><!DOCTYPE svg PUBLIC "-//W3C//DTD SVG 1.1//EN" "http://www.w3.org/Graphics/SVG/1.1/DTD/svg11.dtd"><svg t="1733882884525" class="icon" viewBox="0 0 1024 1024" version="1.1" xmlns="http://www.w3.org/2000/svg" p-id="57182" xmlns:xlink="http://www.w3.org/1999/xlink" width="200" height="200"><path d="M939.154286 912.091429H196.534857a26.038857 26.038857 0 0 1-26.112-26.038858V26.038857C170.422857 11.702857 182.125714 0 196.534857 0H939.154286c14.409143 0 26.038857 11.702857 26.038857 26.038857v860.013714c0 14.409143-11.702857 26.038857-26.038857 26.038858z m-716.580572-52.077715h690.468572V52.150857h-690.468572v807.862857z" fill="#BFCBD9" p-id="57183"></path><path d="M836.461714 1024H84.845714a26.038857 26.038857 0 0 1-26.038857-26.038857V191.195429a26.038857 26.038857 0 0 1 52.077714 0v780.653714h725.577143a26.038857 26.038857 0 0 1 0 52.150857zM613.522286 191.195429H288.914286a26.038857 26.038857 0 0 1 0-52.150858h324.608a26.038857 26.038857 0 0 1 0 52.150858z" fill="#BFCBD9" p-id="57184"></path><path d="M821.979429 482.889143H288.914286a26.038857 26.038857 0 0 1 0-52.077714h533.065143a26.038857 26.038857 0 0 1 0 52.077714z m0 291.84H288.914286a26.038857 26.038857 0 1 1 0-52.150857h533.065143a26.038857 26.038857 0 0 1 0 52.150857z" fill="#BFCBD9" p-id="57185"></path></svg>