<?xml version="1.0" standalone="no"?><!DOCTYPE svg PUBLIC "-//W3C//DTD SVG 1.1//EN" "http://www.w3.org/Graphics/SVG/1.1/DTD/svg11.dtd"><svg t="1733881076010" class="icon" viewBox="0 0 1024 1024" version="1.1" xmlns="http://www.w3.org/2000/svg" p-id="27417" width="200" height="200" xmlns:xlink="http://www.w3.org/1999/xlink"><path d="M490.08 291.2c-13.12-13.12-34.24-13.12-47.36 0L336 398.56c-0.48 0.32-0.8 0.64-1.28 0.96-6.56 6.56-9.76 15.2-9.76 23.84s3.2 17.28 9.76 23.84c0.32 0.32 0.8 0.64 1.28 0.96l106.72 107.2c6.56 6.56 15.04 9.92 23.68 9.92s17.12-3.36 23.68-9.92a33.6 33.6 0 0 0 0-47.52l-84.32-84.64 84.32-84.64c13.12-12.96 13.12-34.24 0-47.36zM945.28 399.52c-0.32-0.32-0.8-0.64-1.28-1.12l-106.72-107.2c-13.12-13.12-34.24-13.12-47.36 0a33.6 33.6 0 0 0 0 47.52l84.32 84.64-84.32 84.64a33.6 33.6 0 0 0 0 47.52c6.56 6.56 15.04 9.92 23.68 9.92s17.12-3.36 23.68-9.92l106.72-107.2a8 8 0 0 0 1.28-1.12c6.56-6.56 9.76-15.2 9.76-23.84s-3.2-17.28-9.76-23.84zM666.08 227.84l-111.52 342.4c-5.76 17.6 3.84 36.64 21.44 42.4a33.504 33.504 0 0 0 42.24-21.6l111.52-342.4c5.76-17.6-3.84-36.64-21.44-42.4-17.6-5.6-36.48 4-42.24 21.6z" p-id="27418" fill="#BFCBD9"></path><path d="M960 115.52C960 52.48 908.96 1.12 846.24 1.12H193.76C131.04 1.12 80 52.48 80 115.52v794.08C80 972.64 131.04 1024 193.76 1024h485.12c1.44 0 2.72-0.32 4.16-0.48 1.44 0.16 2.88 0.48 4.32 0.48 8.64 0 17.28-3.36 23.68-9.92l239.04-240.32c7.36-7.36 10.72-17.76 9.44-27.84 0.32-0.96 0.48-1.92 0.48-2.88v-100.16c0-18.56-15.04-33.6-33.44-33.6-18.56 0-33.44 15.04-33.44 33.6v73.6H687.36c-18.56 0-33.44 15.04-33.44 33.6V956.8H193.76c-25.92 0-46.88-21.12-46.88-47.04V115.52c0-25.92 20.96-47.04 46.88-47.04h652.32c25.92 0 46.88 21.12 46.88 47.04v86.24c0 18.56 15.04 33.6 33.44 33.6 18.56 0 33.44-15.04 33.44-33.6V115.52zM720.96 783.68h124.8l-124.8 125.44v-125.44z" p-id="27419" fill="#BFCBD9"></path></svg>