<?xml version="1.0" standalone="no"?><!DOCTYPE svg PUBLIC "-//W3C//DTD SVG 1.1//EN" "http://www.w3.org/Graphics/SVG/1.1/DTD/svg11.dtd"><svg t="1735304690319" class="icon" viewBox="0 0 1024 1024" version="1.1" xmlns="http://www.w3.org/2000/svg" p-id="10119" xmlns:xlink="http://www.w3.org/1999/xlink" width="200" height="200"><path d="M512.946 203.853c-246.745 0-446.75 307.613-446.75 307.613s200.005 307.613 446.75 307.613c246.686 0 446.721-307.613 446.721-307.613S759.632 203.853 512.946 203.853z m0 499.863c-102.798 0-186.148-86.086-186.148-192.25 0-106.194 83.351-192.25 186.148-192.25 102.769 0 186.119 86.056 186.119 192.25 0 106.164-83.35 192.25-186.119 192.25z m0-269.139c-41.119 0-74.483 34.417-74.483 76.888 0 42.472 33.364 76.918 74.483 76.918s74.454-34.446 74.454-76.918c0-42.471-33.335-76.888-74.454-76.888z" fill="#707070" p-id="10120"></path></svg>