<?xml version="1.0" standalone="no"?><!DOCTYPE svg PUBLIC "-//W3C//DTD SVG 1.1//EN" "http://www.w3.org/Graphics/SVG/1.1/DTD/svg11.dtd"><svg t="1733882338131" class="icon" viewBox="0 0 1024 1024" version="1.1" xmlns="http://www.w3.org/2000/svg" p-id="46283" xmlns:xlink="http://www.w3.org/1999/xlink" width="200" height="200"><path d="M932.352 702.976h-12.288V552.96c0-62.976-53.76-114.176-120.32-114.176h-255.488V331.776h31.744c50.688 0 91.648-39.424 91.648-87.552V133.632c0-48.128-40.96-87.552-91.648-87.552H443.904c-50.688 0-91.648 39.424-91.648 87.552v111.104c0 48.128 40.96 87.552 91.648 87.552h31.744v107.008H220.16c-66.048 0-120.32 51.2-120.32 114.176v150.016h-5.12c-50.688 0-91.648 39.424-91.648 87.552V865.28c0 48.128 40.96 87.552 91.648 87.552h90.624c50.688 0 91.648-39.424 91.648-87.552v-74.24c0-48.128-40.96-87.552-91.648-87.552H168.96v-150.016c0-26.624 23.04-48.64 51.2-48.64h255.488v198.656h-10.752c-50.688 0-91.648 39.424-91.648 87.552V865.28c0 48.128 40.96 87.552 91.648 87.552h90.624c50.688 0 91.648-39.424 91.648-87.552v-74.24c0-48.128-40.96-87.552-91.648-87.552h-10.752V504.832h255.488c28.16 0 51.2 22.016 51.2 48.64v150.016h-9.728c-50.688 0-91.648 39.424-91.648 87.552V865.28c0 48.128 40.96 87.552 91.648 87.552h90.624c50.688 0 91.648-39.424 91.648-87.552v-74.24c0-48.64-40.96-88.064-91.648-88.064zM420.864 244.736V133.632c0-11.776 10.752-22.016 23.04-22.016h132.096c12.288 0 23.04 10.24 23.04 22.016v111.104c0 11.776-10.752 22.016-23.04 22.016H443.904c-12.288-0.512-23.04-10.24-23.04-22.016zM208.896 790.528v74.24c0 11.776-10.752 22.016-23.04 22.016H94.72c-12.288 0-23.04-10.24-23.04-22.016v-74.24c0-11.776 10.752-22.016 23.04-22.016h90.624c12.8 0 23.552 10.24 23.552 22.016z m369.664 0v74.24c0 11.776-10.752 22.016-23.04 22.016H464.384c-12.288 0-23.04-10.24-23.04-22.016v-74.24c0-11.776 10.752-22.016 23.04-22.016h90.624c12.8 0 23.552 10.24 23.552 22.016z m376.32 74.24c0 11.776-10.752 22.016-23.04 22.016h-90.624c-12.288 0-23.04-10.24-23.04-22.016v-74.24c0-11.776 10.752-22.016 23.04-22.016H931.84c12.288 0 23.04 10.24 23.04 22.016v74.24z" fill="#BFCBD9" p-id="46284"></path></svg>