<?xml version="1.0" standalone="no"?><!DOCTYPE svg PUBLIC "-//W3C//DTD SVG 1.1//EN" "http://www.w3.org/Graphics/SVG/1.1/DTD/svg11.dtd"><svg t="1734674567866" class="icon" viewBox="0 0 1024 1024" version="1.1" xmlns="http://www.w3.org/2000/svg" p-id="4270" xmlns:xlink="http://www.w3.org/1999/xlink" width="200" height="200"><path d="M516.624516 173.749677c184.32 0 333.625806 149.305806 333.625807 333.625807 0 139.396129-85.223226 285.39871-206.781936 334.947097l18.498065 44.263225c138.735484-56.815484 235.850323-219.994839 235.850322-379.210322C898.477419 296.629677 727.370323 125.522581 516.624516 125.522581v48.227096z m0 667.251613c-184.32 0-333.625806-149.305806-333.625806-333.625806 0-144.020645 91.169032-253.027097 218.012903-299.932903l-16.516129-44.923871c-145.341935 53.512258-249.063226 180.356129-249.063226 344.856774 0 210.745806 171.107097 381.192258 381.852903 381.852903v-48.227097h-0.660645z" p-id="4271" fill="#4963f7"></path><path d="M780.882581 852.892903l-95.132904 4.624516h-0.660645c-3.963871 0-7.927742-3.303226-7.927742-7.267096l-4.624516-95.132904-47.566451 2.642581 4.624516 95.132903c1.32129 29.729032 25.765161 52.851613 55.494193 52.851613h2.642581l95.132903-4.624516-1.981935-48.227097z" p-id="4272" fill="#4963f7"></path><path d="M272.185806 184.32l95.793549-4.624516h0.660645c5.285161 0 7.927742 3.963871 7.927742 5.945806l4.624516 90.508387 47.566452-2.64258-4.624516-90.508387c-1.32129-29.068387-26.425806-50.869677-55.494194-50.869678h-2.642581l-95.793548 4.624516 1.981935 47.566452z" p-id="4273" fill="#4963f7"></path></svg>