<?xml version="1.0" standalone="no"?><!DOCTYPE svg PUBLIC "-//W3C//DTD SVG 1.1//EN" "http://www.w3.org/Graphics/SVG/1.1/DTD/svg11.dtd"><svg t="1733882749469" class="icon" viewBox="0 0 1024 1024" version="1.1" xmlns="http://www.w3.org/2000/svg" p-id="51965" xmlns:xlink="http://www.w3.org/1999/xlink" width="200" height="200"><path d="M527.9 876c5-0.7 9.8-2.4 13.9-5.2 6.5-3.8 12.6-8.1 18.3-13 5.5-4.7 10.7-9.7 15.5-15 3.5-3 5.8-7 6.7-11.4 0.5-5.9 0.5-11.8 0-17.6 0-8.3-3.9-17.6-6.1-27-2.2-9.3-5-19.7-7.2-29.5s-4.4-17.6-6.1-23.3c4.4-4.1 8.3-8.6 11.6-13.5 3.8-4.6 6-10.2 6.1-16.1-0.2-4.9-1.9-9.6-5-13.5-3-4.5-6.8-8.5-11.1-11.9l-15-11.4h-43.8c-5.3 3.4-10.3 7.2-15 11.4-3.6 3.4-6.8 7.3-9.4 11.4-2.7 3.9-4.3 8.3-4.4 13 0.7 4.9 3.1 9.4 6.7 13 4.7 5.8 10.1 11 16.1 15.6l-7.2 21.3c-2.8 9.3-5.5 19.2-8.3 29.5-2.8 10.4-5 19.7-7.2 29-1.6 6.6-2.6 13.4-2.8 20.2 0.9 4.4 3.2 8.3 6.7 11.4 4.9 5.5 10.2 10.5 16.1 15 5.8 4.7 11.9 9 18.3 13 3.7 2.3 8.1 3.9 12.6 4.6z m399.3-81.9v15.6c1.2 12.3 0.3 24.8-2.8 36.8-1.3 9.3-4.5 18.3-9.4 26.4-7.2 6.2-16 10.5-25.5 12.4-117 29.5-237.7 43.8-358.8 42.5-124.3-0.2-248.4-11.3-370.5-33.2-16-2.3-31.5-6.9-46-13.5-6.7-4.7-11.6-18.1-14.4-40.4-2.9-21.1-1.6-42.6 3.9-63.2 2.3-18 11.8-34.5 26.6-46.1 15-10.9 31.9-19.3 49.9-24.9 19.4-6.2 108.1-34.7 128.7-39.4 19.6-4.1 38.4-11.3 55.5-21.3 10.5-5.7 20.2-12.7 28.8-20.7 11.8-10.5 18.5-25.2 18.3-40.4v-23.3c-0.3-11.5-5.3-22.4-13.9-30.6-7.8-7.3-16.6-14.5-27.2-22.3-5.2-4.5-9.3-10-12.2-16.1-6.5-5.5-10.3-13.1-10.5-21.3l-11.1-25.4c-4.4-1.2-8.5-3.1-12.2-5.7-4.3-3.4-8.2-7.2-11.6-11.4-4.8-5.8-8.5-12.3-11.1-19.2-2.8-8.2-3.8-16.8-2.8-25.4 0.3-7.3 1.8-14.4 4.4-21.3 2.4-6.4 6-12.4 10.5-17.6-0.5-21 0.8-41.9 3.9-62.7 2.6-19 6.9-37.7 12.8-56 6.1-18.5 15.2-36 27.2-51.8 10.3-14.6 23-27.5 37.7-38.4 12.8-9.2 26.8-16.9 41.6-22.8 13.9-5.3 28.4-9.1 43.3-11.4 13.7-2.2 27.7-3.4 41.6-3.6 16.1 0 32.1 1.9 47.7 5.7 15.6 3.6 30.9 8.7 45.5 15 12.7 5.6 24.8 12.4 36 20.2 9.5 6.5 18.1 14.2 25.5 22.8 14.6 17.4 25.9 37 33.3 58.1 7.1 19.4 12.3 39.3 15.5 59.6 3.5 21.8 5 43.8 4.4 65.8 4.2 2.3 7.5 5.7 9.4 9.8 2.7 4.7 4.5 9.8 5.5 15 1.3 7.4 1.3 14.9 0 22.3-1.2 9.5-4 18.8-8.3 27.5-3.2 6-7.5 11.5-12.8 16.1-4.8 4.1-10.5 7.1-16.6 8.8 0 8.8-5 17.6-7.8 25.4-2.8 7.8-6.7 14-10 20.7-3.2 6-7.5 11.5-12.8 16.1-4.7 3.9-9.7 7.6-15 10.9-4.4 2.7-8.5 5.9-12.2 9.3-3.7 3.4-6.7 7.5-8.9 11.9-2.6 5.5-4.5 11.2-5.5 17.1-1.1 8.4-1.1 17 0 25.4 0.7 8.8 3.1 17.4 7.2 25.4 4.9 9.4 11.9 17.7 20.5 24.4 11.4 8.8 24.4 15.8 38.3 20.7 15.7 5.8 31.8 10.7 48.2 14.5 17.2 4.1 87.6 32.1 103.7 37.8 15.4 5.4 29.9 12.7 43.3 21.8 12.2 9.2 21.4 21.4 26.6 35.2 2.9 10.8 4.4 21.6 4.6 32.4z" fill="#BFCBD9" p-id="51966"></path></svg>