<?xml version="1.0" standalone="no"?><!DOCTYPE svg PUBLIC "-//W3C//DTD SVG 1.1//EN" "http://www.w3.org/Graphics/SVG/1.1/DTD/svg11.dtd"><svg t="1733881242055" class="icon" viewBox="0 0 1024 1024" version="1.1" xmlns="http://www.w3.org/2000/svg" p-id="35757" xmlns:xlink="http://www.w3.org/1999/xlink" width="200" height="200"><path d="M480.512 910.677333a30.677333 30.677333 0 0 1-30.677333 30.634667h-245.333334a30.677333 30.677333 0 0 1 0-61.312h245.333334c16.938667 0 30.72 13.738667 30.72 30.677333zM1011.2 125.354667v274.773333a33.28 33.28 0 1 1-66.645333 0v-203.52a42.666667 42.666667 0 0 0-42.666667-42.666667H143.701333a42.666667 42.666667 0 0 0-42.666666 42.666667v509.312a42.666667 42.666667 0 0 0 42.666666 42.666667h299.136a35.029333 35.029333 0 0 1 0 70.058666H72.533333a42.666667 42.666667 0 0 1-42.666666-42.666666V125.312a42.666667 42.666667 0 0 1 42.666666-42.666667h896a42.666667 42.666667 0 0 1 42.666667 42.666667z" fill="#BFCBD9" p-id="35758"></path><path d="M812.629333 210.005333a51.2 51.2 0 1 1-29.482666 93.013334l-145.962667 121.984a51.2 51.2 0 0 1-99.413333 23.210666l-79.829334-23.765333a51.157333 51.157333 0 0 1-71.552 12.970667l-107.136 91.050666a51.2 51.2 0 1 1-16-31.189333l103.253334-87.722667a51.2 51.2 0 1 1 100.394666-14.08l-0.213333-4.053333 72.448 21.589333c6.997333-17.109333 23.04-29.568 42.112-31.530666l5.248-0.256c13.098667 0 25.045333 4.949333 34.133333 13.013333l142.72-119.125333a51.2 51.2 0 0 1 49.28-65.109334z" fill="#BFCBD9" p-id="35759"></path><path d="M838.016 736.938667c0 34.602667-27.733333 62.72-61.909333 62.72a62.293333 62.293333 0 0 1-61.952-62.72c0-34.645333 27.733333-62.72 61.952-62.72a62.293333 62.293333 0 0 1 61.909333 62.72z" fill="#BFCBD9" p-id="35760"></path><path d="M676.778667 532.48c-12.8-0.042667-24.661333 6.741333-31.232 17.834667l-99.413334 167.637333a37.248 37.248 0 0 0 0 37.930667l99.413334 167.594666c6.570667 11.093333 18.432 17.877333 31.232 17.834667h198.698666a36.266667 36.266667 0 0 0 31.146667-17.834667l99.413333-167.68a37.248 37.248 0 0 0 0-37.845333l-99.413333-167.637333a36.309333 36.309333 0 0 0-31.146667-17.877334h-198.698666z m21.333333 74.922667h155.946667l76.8 129.536-76.8 129.450666h-155.946667l-76.8-129.493333 76.8-129.493333z" fill="#BFCBD9" p-id="35761"></path></svg>