<?xml version="1.0" standalone="no"?><!DOCTYPE svg PUBLIC "-//W3C//DTD SVG 1.1//EN" "http://www.w3.org/Graphics/SVG/1.1/DTD/svg11.dtd"><svg t="1733476096399" class="icon" viewBox="0 0 1024 1024" version="1.1" xmlns="http://www.w3.org/2000/svg" p-id="7106" xmlns:xlink="http://www.w3.org/1999/xlink" width="200" height="200"><path d="M512 0C229.4 0 0 229.1 0 512c0 282.6 229.1 512 512 512 282.6 0 512-229.1 512-512S794.9 0 512 0zM208.5 427.4c-4-4.7-5.8-10.8-4.8-16.7 10.4-67.5 44-130.1 94.6-176.3 4-3.7 9.1-5.5 14.2-5.5 5.5 0 11 2.1 15.2 6.3l0.5 0.5c4.1 4.1 6.4 9.6 6.2 15.5-0.1 6.2-2.9 12.2-7.6 16.5-42.5 39.1-70.9 92-79.8 148.9-1.7 10.7-10.7 18.4-21.5 18.4h-0.7c-6.2 0-12.2-2.8-16.3-7.6z m368.4 390c-8.7 20.9-27.6 36.5-50.1 41.1-4.4 1-9 1.4-13.9 1.4-38.2 0-69.5-31.3-69.5-69.5h139.1c0 9.6-2.1 18.6-5.6 27z m231-62.8h-0.2c0 0.5-0.4 0.9-0.9 0.9H217.3c-0.5 0-0.9-0.4-0.9-0.9v-33.5c0-0.2 0.1-0.5 0.3-0.7l69-69c0.2-0.2 0.3-0.4 0.3-0.7v-191c0-106.8 74.2-196.2 174-219.8v-23.7c0-30.4 25.8-54.6 56.7-52 27.6 2.3 47.6 27.9 47.6 55.6v19.3c0 0.4 0.3 0.8 0.7 0.9 99.5 23.9 173.3 113.1 173.3 219.7v191c0 0.2 0.1 0.5 0.3 0.7l69 69c0.2 0.2 0.3 0.4 0.3 0.7v33.5z m7.6-327.2c-4.1 4.8-10.1 7.6-16.5 7.6h-0.7c-10.7 0-19.7-7.7-21.3-18.4-8.9-56.9-37.3-109.8-80-148.9-4.7-4.3-7.5-10.3-7.6-16.5-0.1-5.9 2.1-11.4 6.2-15.5l0.2-0.2c4.3-4.3 9.9-6.4 15.5-6.4 5.2 0 10.5 1.9 14.6 5.7 50.5 46.1 84 108.6 94.4 176 1 5.8-0.8 11.9-4.8 16.6z" fill="#00ADF9" p-id="7107"></path></svg>