<?xml version="1.0" standalone="no"?><!DOCTYPE svg PUBLIC "-//W3C//DTD SVG 1.1//EN" "http://www.w3.org/Graphics/SVG/1.1/DTD/svg11.dtd"><svg t="1736039554955" class="icon" viewBox="0 0 1024 1024" version="1.1" xmlns="http://www.w3.org/2000/svg" p-id="6129" xmlns:xlink="http://www.w3.org/1999/xlink" width="200" height="200"><path d="M512.7 137.8C306.4 137.8 139 305.1 139 511.5s167.3 373.7 373.7 373.7 373.7-167.3 373.7-373.7-167.3-373.7-373.7-373.7z m0 590.6c-19.4 0-35.2-15.8-35.2-35.2 0-19.4 15.8-35.2 35.2-35.2 19.4 0 35.2 15.8 35.2 35.2 0 19.4-15.7 35.2-35.2 35.2zM580.1 562c-18.5 10.1-31.2 28.2-34.8 49-1.3 7.3-8 12.3-15.4 12.3h-32.4c-10 0-17.3-9-15.9-18.9 5.9-41.6 30.8-78.3 68-98.6 25.3-13.7 41-40.1 41-68.8 0-20.3-8.3-39.8-23.4-54.9-15.1-15.1-34.6-23.4-54.8-23.4-38.8 0-71.2 28.5-77.3 65.6-1.2 7.6-8.5 12.7-16.2 12.7h-31.8c-9.9 0-17.1-8.9-15.8-18.7 9.2-69.6 68.9-123.6 141.1-123.6 37.4 0 72.9 15 100.1 42.2 27.2 27.2 42.2 62.8 42.2 100.2-0.2 52.1-28.7 100-74.6 124.9z" fill="#231815" p-id="6130"></path></svg>