<?xml version="1.0" standalone="no"?><!DOCTYPE svg PUBLIC "-//W3C//DTD SVG 1.1//EN" "http://www.w3.org/Graphics/SVG/1.1/DTD/svg11.dtd"><svg t="1736315988831" class="icon" viewBox="0 0 1024 1024" version="1.1" xmlns="http://www.w3.org/2000/svg" p-id="6328" xmlns:xlink="http://www.w3.org/1999/xlink" width="200" height="200"><path d="M585.508571 322.56a47.542857 47.542857 0 0 1 84.918858-0.438857l312.100571 610.011428a47.542857 47.542857 0 1 1-84.626286 43.373715L628.662857 449.243429 371.712 965.485714a47.542857 47.542857 0 0 1-56.612571 24.210286l-7.168-2.925714a47.542857 47.542857 0 0 1-21.357715-63.634286l298.934857-600.502857z" fill="#2c2c2c" p-id="6329"></path><path d="M416.914286 815.542857h424.228571v-95.085714H416.914286z" fill="#2c2c2c" p-id="6330"></path><path d="M251.465143 39.716571a45.714286 45.714286 0 0 1 57.490286 29.549715l32.768 102.326857a45.714286 45.714286 0 1 1-87.04 27.940571l-32.768-102.326857a45.714286 45.714286 0 0 1 29.549714-57.490286z" fill="#2c2c2c" p-id="6331"></path><path d="M478.061714 144.603429a45.714286 45.714286 0 0 1 0 91.428571H98.889143a45.714286 45.714286 0 1 1 0-91.428571h379.172571z" fill="#2c2c2c" p-id="6332"></path><path d="M412.964571 151.113143l6.729143 0.877714a45.714286 45.714286 0 0 1 35.181715 54.198857c-35.693714 168.374857-149.284571 297.691429-336.530286 386.486857a45.714286 45.714286 0 0 1-39.204572-82.651428C242.102857 432.932571 336.091429 325.851429 365.494857 187.245714a45.714286 45.714286 0 0 1 54.125714-35.254857l-6.582857-0.877714z" fill="#2c2c2c" p-id="6333"></path><path d="M160.475429 260.388571a45.714286 45.714286 0 0 1 55.296 33.353143c19.894857 80.603429 110.884571 153.673143 278.454857 214.674286a45.714286 45.714286 0 0 1-31.305143 85.942857c-193.243429-70.363429-307.053714-161.792-335.872-278.674286a45.714286 45.714286 0 0 1 33.426286-55.369142z" fill="#2c2c2c" p-id="6334"></path></svg>